<svg width="357px" height="362px" viewBox="0 0 357 362" version="1.1" xmlns="http://www.w3.org/2000/svg"
	xmlns:xlink="http://www.w3.org/1999/xlink">
	<g id="Page-1" stroke="none" stroke-width="1" fill="none" fill-rule="evenodd">
		<g id="Group" transform="translate(0.257225, 0.939233)" fill="#000000">
			<path
				d="M294.627541,7.90158715 C294.627541,11.9609036 292.965328,43.3704688 291.735291,75.4876987 L291.619518,78.5477697 C290.952581,96.4007198 290.439553,114.211037 290.439553,127.410376 C343.830178,155.552954 356.742775,201.424752 356.742775,238.886939 C356.742775,313.216366 311.065692,353.940975 219.711525,361.060767 L29.7427754,361.060767 L29.7427754,361.060767 C27.6211934,340.121802 34.1956899,312.242586 74.0816426,300.480689 C103.454201,291.819068 164.327263,298.02985 212.96592,291.819068 C243.441284,287.927598 256.293428,277.488591 265.035744,268.820044 C268.276223,265.606909 270.465188,259.319068 269.145363,258.087134 C264.685605,253.924363 252.80967,246.82688 253.411721,241.150611 C257.764662,200.110105 234.663674,179.880103 194.560402,181.87107 C188.339125,182.179931 187.820641,177.720455 187.775002,176.899634 C187.517988,172.277253 187.295986,169.697929 187.147267,167.191791 L187.111637,166.565641 C187.009458,164.684925 186.950295,162.753039 186.950295,159.938941 C127.551857,194.299292 138.065729,243.163523 125.597268,241.976782 C-19.1175762,256.554907 -8.32139191,133.69157 11.4029316,131.257056 C18.0459004,130.437134 29.3242352,129.872681 40.6743718,129.490509 L42.3768603,129.434541 C58.2611314,128.924764 73.8389046,128.765085 76.5877596,128.754679 L76.8326191,128.754126 L76.8326191,128.754126 C85.1529316,128.754126 89.3130879,124.817603 89.3130879,116.944556 C99.5090514,66.2974205 145.889911,45.2355715 228.455666,53.759009 C235.5084,21.2194582 263.436623,7.80734887 277.907326,2.41477074 C292.378029,-2.97780738 294.627541,1.45822777 294.627541,7.90158715 Z M113.918543,108.123821 C105.849852,128.094531 112.368724,147.217012 127.474774,153.320252 C142.580824,159.423493 160.553699,150.19632 168.62239,130.22561 C176.691081,110.254899 170.986174,89.1177852 155.880124,83.0145447 C140.774073,76.9113042 121.987234,88.1531099 113.918543,108.123821 Z"
				id="Combined-Shape"></path>
			<ellipse id="Oval"
				transform="translate(146.242775, 126.560767) rotate(17.000000) translate(-146.242775, -126.560767) "
				cx="146.242775" cy="126.560767" rx="13.5" ry="15.5"></ellipse>
			<ellipse id="Oval" cx="224.242775" cy="238.560767" rx="13.5" ry="12.5"></ellipse>
		</g>
	</g>
</svg>